<?xml version="1.0" encoding="UTF-8"?><svg id="Layer_1" xmlns="http://www.w3.org/2000/svg" xmlns:xlink="http://www.w3.org/1999/xlink" viewBox="0 0 512 512"><defs><style>.cls-1{fill:url(#linear-gradient);}.cls-2{fill:url(#linear-gradient-3);}.cls-3{fill:url(#linear-gradient-2);}.cls-4{fill:url(#radial-gradient);}</style><linearGradient id="linear-gradient" x1="20.26" y1="26.78" x2="509.42" y2="506.55" gradientTransform="translate(0 514) scale(1 -1)" gradientUnits="userSpaceOnUse"><stop offset="0" stop-color="#0a0a0e"/><stop offset="1" stop-color="#2e3146"/></linearGradient><radialGradient id="radial-gradient" cx="256.72" cy="811.85" fx="256.72" fy="811.85" r="59.42" gradientTransform="translate(0 -568)" gradientUnits="userSpaceOnUse"><stop offset="0" stop-color="#ca394d"/><stop offset=".57" stop-color="#b73354"/><stop offset=".99" stop-color="#ae3058"/></radialGradient><linearGradient id="linear-gradient-2" x1="168.96" y1="674.51" x2="315.74" y2="793.3" gradientTransform="translate(0 -568)" gradientUnits="userSpaceOnUse"><stop offset="0" stop-color="#f92855"/><stop offset="1" stop-color="#fe7e5f"/></linearGradient><linearGradient id="linear-gradient-3" x1="195.91" y1="816.87" x2="326.61" y2="965.6" gradientTransform="translate(0 -568)" gradientUnits="userSpaceOnUse"><stop offset="0" stop-color="#f92855"/><stop offset="1" stop-color="#fe7e5f"/></linearGradient></defs><rect class="cls-1" x="0" y="0" width="512" height="512" rx="256" ry="256"/><g><polyline class="cls-4" points="214.37 242.56 273.43 183.48 315.18 225.24 236.21 304.22 198.25 258.67 214.37 242.56"/><path class="cls-3" d="M327.94,196.29c-.04,.69-.11,1.37-.19,2.06-.04,.36-.09,.7-.13,1.05-1.43,10.25-6.32,19.71-13.65,27.04-13.23,13.23-26.45,26.45-39.68,39.68,2.11-3.85,4.21-7.68,6.33-11.53,1.9-3.94,4.17-9.9,4.74-17.3,.04-.41,.06-.84,.09-1.26,.84-14.11-4.62-27.85-14.61-37.85l-83.18-83.18c-1.63-1.63-2.44-3.76-2.44-5.89s.81-4.27,2.44-5.89c2.99-2.99,6.29-5.52,9.78-7.57,18.62-10.94,42.96-8.41,58.93,7.57,12.59,12.58,25.17,25.17,37.75,37.75,5.83,5.83,11.66,11.66,17.49,17.48,6.37,6.37,12.51,11.82,14.72,21.04,1.28,5.33,1.99,11.23,1.62,16.79Z"/><path class="cls-2" d="M231.37,230.75c-1.89,3.94-4.17,9.9-4.74,17.3-1.16,14.76,2.57,30.57,23,51.17,18.03,18.19,36.07,36.37,54.09,54.56,2.75,3.47,6.87,9.59,9.23,18.18,3.8,13.85,.58,25.33-.73,29.29-3.3,10.04-8.98,16.67-12.35,20.07-.4,.4-1.16,1.09-2.31,1.45-2.59,.8-5.18-.67-6.32-1.45-31.94-31.94-63.87-63.87-95.82-95.82-1.99-2.54-4.64-6.41-6.88-11.53-5.77-13.14-4.56-24.78-4.29-26.99,.04-.36,.09-.7,.13-1.05,1.43-10.25,6.32-19.71,13.64-27.04l39.68-39.68c-2.11,3.85-4.21,7.68-6.33,11.53Z"/></g></svg>